<svg width="24" height="24" viewBox="0 0 24 24" fill="none" xmlns="http://www.w3.org/2000/svg">
<path fill-rule="evenodd" clip-rule="evenodd" d="M9.52825 10.6634C10.2136 11.3487 11.0375 11.6914 12 11.6914C12.9625 11.6914 13.7864 11.3487 14.4718 10.6634C15.1573 9.97791 15.5 9.15391 15.5 8.19141C15.5 7.22891 15.1573 6.40499 14.4718 5.71966C13.7864 5.03416 12.9625 4.69141 12 4.69141C11.0375 4.69141 10.2136 5.03416 9.52825 5.71966C8.84275 6.40499 8.5 7.22891 8.5 8.19141C8.5 9.15391 8.84275 9.97791 9.52825 10.6634ZM4.5 17.0837V19.3069H6V17.8069V17.0837V17H6.00341C6.01746 16.8293 6.07499 16.6697 6.176 16.5212C6.29333 16.3488 6.45258 16.2082 6.65375 16.0992C7.51542 15.6748 8.39392 15.3533 9.28925 15.1347C10.1848 14.9162 11.0883 14.8069 12 14.8069C12.9117 14.8069 13.8152 14.9162 14.7107 15.1347C15.6061 15.3533 16.4846 15.6748 17.3462 16.0992C17.5474 16.2082 17.7067 16.3488 17.824 16.5212C17.925 16.6697 17.9825 16.8293 17.9966 17H18V17.0837V17.8069V19.3069H19.5V17.0837C19.5 16.594 19.367 16.1405 19.101 15.7232C18.835 15.3058 18.4795 14.985 18.0345 14.7607C17.0462 14.2762 16.0491 13.9127 15.0433 13.6704C14.0374 13.4281 13.023 13.3069 12 13.3069C10.977 13.3069 9.96258 13.4281 8.95675 13.6704C7.95092 13.9127 6.95383 14.2762 5.9655 14.7607C5.5205 14.985 5.165 15.3058 4.899 15.7232C4.633 16.1405 4.5 16.594 4.5 17.0837ZM13.4125 9.60391C13.0208 9.99557 12.55 10.1914 12 10.1914C11.45 10.1914 10.9792 9.99557 10.5875 9.60391C10.1958 9.21224 10 8.74141 10 8.19141C10 7.64141 10.1958 7.17057 10.5875 6.77891C10.9792 6.38724 11.45 6.19141 12 6.19141C12.55 6.19141 13.0208 6.38724 13.4125 6.77891C13.8042 7.17057 14 7.64141 14 8.19141C14 8.74141 13.8042 9.21224 13.4125 9.60391Z" fill="#1D1D1D"/>
</svg>
